Coordinates
version=1
nRows=14
nColumns=42
inDegrees=yes

Units are S.I. units (second, meters, Newtons, ...)
If the header above contains a line with 'inDegrees', this indicates whether rotational values are in degrees (yes) or radians (no).

endheader
time	pelvis_tilt	pelvis_list	pelvis_rotation	pelvis_tx	pelvis_ty	pelvis_tz	hip_flexion_r	hip_adduction_r	hip_rotation_r	knee_angle_r	knee_adduction_r	knee_angle_r_beta	ankle_angle_r	subtalar_angle_r	mtp_angle_r	hip_flexion_l	hip_adduction_l	hip_rotation_l	knee_angle_l	knee_adduction_l	knee_angle_l_beta	ankle_angle_l	subtalar_angle_l	mtp_angle_l	lumbar_extension	lumbar_bending	lumbar_rotation	arm_flex_r	arm_add_r	arm_rot_r	elbow_flex_r	pro_sup_r	wrist_flex_r	wrist_dev_r	arm_flex_l	arm_add_l	arm_rot_l	elbow_flex_l	pro_sup_l	wrist_flex_l	wrist_dev_l
      2.50000000	      0.60629248	     -8.05945757	     -3.76198048	     -1.22222747	      0.83069621	      0.34023642	      6.61926402	      8.12658869	    -24.84162303	     20.52656116	     -2.30619510	      0.35825608	     19.02103833	     28.55393375	     -7.55682504	     18.12195889	    -21.57475335	    -24.98834795	     55.95822755	    -11.46131666	      0.97665531	     19.25050229	     15.06319816	     -7.55682504	    -23.73241561	     10.51898219	      1.82364201	     -9.58868325	     -4.46763382	    -11.61823320	    107.32598039	     90.00000001	      0.00000000	      0.00000000	     -0.02278435	     -8.00054472	    -17.64695900	     52.69600475	     90.00000001	      0.00000000	      0.00000000
      2.51000000	      0.39081456	     -8.07463341	     -3.76975966	     -1.22105743	      0.83036200	      0.33984082	      6.76981900	      8.11142660	    -25.05709603	     20.52831880	     -2.38011384	      0.35828675	     19.18334009	     28.86708411	     -7.55555276	     19.17907675	    -21.73643250	    -26.09930429	     54.75397904	    -11.82463305	      0.95563721	     19.91243762	     16.24101824	     -7.55555276	    -23.76212819	     10.51791947	      1.71885526	     -9.52994425	     -4.38657712	    -11.49232843	    107.41083186	     90.00000001	      0.00000000	      0.00000000	      0.14891367	     -8.09196182	    -17.58598206	     52.71209808	     90.00000001	      0.00000000	      0.00000000
      2.52000000	      0.18243791	     -8.19217633	     -3.78259688	     -1.21993127	      0.83004459	      0.33945767	      6.89138805	      8.15773729	    -25.13581868	     20.57197267	     -2.24318859	      0.35904866	     19.20902217	     28.76914892	     -7.55502585	     20.15776841	    -22.01781430	    -26.49292992	     53.54993785	    -11.45768325	      0.93462273	     20.12050783	     16.45434615	     -7.55502585	    -23.81658288	     10.60840884	      1.66702231	     -9.44357986	     -4.29452333	    -11.38429026	    107.51669422	     90.00000001	      0.00000000	      0.00000000	      0.29012857	     -8.15758763	    -17.54592422	     52.81220535	     90.00000001	      0.00000000	      0.00000000
      2.53000000	     -0.25860085	     -8.15253314	     -3.85563269	     -1.21872534	      0.82929309	      0.33884651	      7.34013314	      8.11707620	    -25.18000555	     20.63643733	     -2.38920666	      0.36017378	     19.33403434	     29.09495983	     -7.55382274	     21.43357044	    -22.01270734	    -27.83688744	     52.16132245	    -12.08880539	      0.91038682	     20.86566540	     19.09528977	     -7.55382274	    -23.54465952	     10.56988562	      1.52742042	     -9.49248246	     -4.26340050	    -11.19453743	    107.56972735	     90.00000001	      0.00000000	      0.00000000	      0.40888583	     -8.23677371	    -17.46955975	     52.68066653	     90.00000001	      0.00000000	      0.00000000
      2.54000000	     -0.38250544	     -8.21091778	     -3.98695210	     -1.21735774	      0.82902021	      0.33828271	      7.41920422	      8.05361599	    -25.30372950	     20.83172882	     -2.33941582	      0.36358226	     19.52770537	     29.25488580	     -7.55174712	     22.16780607	    -22.18790283	    -29.12979789	     50.63480367	    -12.34922582	      0.88374404	     21.31511827	     22.16942125	     -7.55174712	    -23.66506892	     10.55841188	      1.58215943	     -9.47550164	     -4.19917634	    -11.09596357	    107.67005613	     90.00000001	      0.00000000	      0.00000000	      0.53533666	     -8.25421701	    -17.41020108	     52.74420482	     90.00000001	      0.00000000	      0.00000000
      2.55000000	     -0.62551201	     -8.35385363	     -4.00447768	     -1.21612328	      0.82859931	      0.33756936	      7.57500984	      8.16523352	    -25.24084946	     20.82406755	     -2.30480910	      0.36344854	     19.56427173	     29.14986239	     -7.55119953	     23.09188409	    -22.28544176	    -29.24828400	     49.31432009	    -11.92108648	      0.86069725	     21.38390980	     22.49481821	     -7.55119953	    -23.65290010	     10.66520510	      1.50938544	     -9.48693280	     -4.18732221	    -11.01965521	    107.77156110	     90.00000001	      0.00000000	      0.00000000	      0.64364999	     -8.34633070	    -17.38192580	     52.79306292	     90.00000001	      0.00000000	      0.00000000
      2.56000000	     -1.01544764	     -8.39636235	     -4.08005386	     -1.21472221	      0.82788688	      0.33675854	      7.94345287	      8.14742805	    -25.22506859	     20.95966254	     -2.29947340	      0.36581512	     19.74542656	     29.20775841	     -7.54953281	     24.16626364	    -22.30026442	    -30.23632274	     47.89275042	    -12.19770681	      0.83588618	     21.53815169	     25.95407434	     -7.54953281	    -23.39645196	     10.67895753	      1.40975280	     -9.53444016	     -4.18426294	    -10.92860762	    107.77228534	     90.00000001	      0.00000000	      0.00000000	      0.77630988	     -8.39524096	    -17.32876127	     52.57614989	     90.00000001	      0.00000000	      0.00000000
      2.57000000	     -1.20348862	     -8.55475102	     -4.16167484	     -1.21320528	      0.82747413	      0.33599139	      8.00621313	      8.25603660	    -25.21480152	     20.93940473	     -2.25985858	      0.36546156	     19.79968089	     29.09564174	     -7.54918241	     24.90315981	    -22.42677116	    -30.32417040	     46.73788598	    -11.66485124	      0.81573000	     21.56816435	     26.09377315	     -7.54918241	    -23.38906217	     10.77917178	      1.36343473	     -9.56686227	     -4.14395292	    -10.87945411	    107.90293741	     90.00000001	      0.00000000	      0.00000000	      0.79889828	     -8.45199767	    -17.31532022	     52.62629577	     90.00000001	      0.00000000	      0.00000000
      2.58000000	     -1.54367047	     -8.56584295	     -4.19848166	     -1.21189841	      0.82697597	      0.33493111	      8.29861932	      8.33725716	    -24.88533645	     20.86931162	     -2.45962732	      0.36423820	     19.94032230	     29.07637200	     -7.54851449	     25.74683118	    -22.15907631	    -30.24271976	     45.31407144	    -11.32057535	      0.79087974	     21.33606181	     27.64772110	     -7.54851449	    -23.20674685	     10.75119960	      1.28060421	     -9.68257545	     -4.18824289	    -10.83463251	    107.91971449	     90.00000001	      0.00000000	      0.00000000	      0.96225705	     -8.48878029	    -17.26588614	     52.51554105	     90.00000001	      0.00000000	      0.00000000
      2.59000000	     -1.69265502	     -8.74587456	     -4.30507977	     -1.21007578	      0.82656349	      0.33398663	      8.28587632	      8.40851330	    -24.93043865	     20.88457052	     -2.33361620	      0.36450452	     20.00890985	     28.98205397	     -7.54827973	     26.36268181	    -22.31268988	    -30.44012305	     44.45726790	    -10.88533202	      0.77592570	     21.31320769	     27.91630096	     -7.54827973	    -23.18366463	     10.86555567	      1.19957901	     -9.73027210	     -4.16546101	    -10.83991827	    107.97294534	     90.00000001	      0.00000000	      0.00000000	      0.92529999	     -8.54603056	    -17.26404385	     52.48037235	     90.00000001	      0.00000000	      0.00000000
      2.60000000	     -2.02504159	     -8.71773260	     -4.44671661	     -1.20832937	      0.82606527	      0.33292159	      8.53549476	      8.39837701	    -24.57279837	     20.86206645	     -2.45628323	      0.36411175	     20.29108414	     29.00740077	     -7.54754559	     26.98237606	    -22.04202497	    -30.71759498	     43.10055708	    -10.78112834	      0.75224663	     20.75007539	     30.79010925	     -7.54754559	    -22.90188213	     10.76847262	      1.15912469	     -9.84919810	     -4.15923896	    -10.89016670	    107.87136540	     90.00000001	      0.00000000	      0.00000000	      1.01585544	     -8.58810758	    -17.23765455	     52.09670787	     90.00000001	      0.00000000	      0.00000000
      2.61000000	     -2.12927805	     -8.91210447	     -4.61067539	     -1.20639646	      0.82579228	      0.33177022	      8.50673127	      8.49453274	    -24.51511215	     20.94383410	     -2.40087957	      0.36553886	     20.32317033	     28.90737101	     -7.54726258	     27.38838653	    -22.10743210	    -30.80275998	     42.36258478	    -10.47205212	      0.73936658	     20.71326324	     30.94435247	     -7.54726258	    -22.90680842	     10.88787037	      1.15436641	     -9.91908577	     -4.21918877	    -10.92144879	    107.85898773	     90.00000001	      0.00000000	      0.00000000	      0.98092771	     -8.59818422	    -17.22253958	     52.11301002	     90.00000001	      0.00000000	      0.00000000
      2.62000000	     -2.16210675	     -8.84592933	     -4.90351164	     -1.20429875	      0.82579262	      0.33065012	      8.38390587	      8.38995142	    -24.01034918	     20.96509617	     -2.43873710	      0.36590996	     20.56076187	     28.68441564	     -7.54551081	     27.45170489	    -21.83325978	    -31.39366811	     41.30184083	    -10.54502383	      0.72085311	     20.13134137	     33.12597449	     -7.54551081	    -22.93108443	     10.65732297	      1.25112623	     -9.99754239	     -4.21754543	    -11.03102110	    107.72933295	     90.00000001	      0.00000000	      0.00000000	      1.05924260	     -8.64097334	    -17.18999621	     51.82723666	     90.00000001	      0.00000000	      0.00000000
      2.63000000	     -2.26316869	     -8.97759886	     -5.10749745	     -1.20209671	      0.82559096	      0.32938535	      8.31444560	      8.44838785	    -23.87288845	     20.97472776	     -2.46465802	      0.36607806	     20.59785365	     28.62543340	     -7.54521537	     27.68241683	    -21.79142895	    -31.27236966	     40.78477300	    -10.24187318	      0.71182857	     20.07326507	     33.08255733	     -7.54521537	    -22.86701440	     10.70297302	      1.23473190	    -10.07802216	     -4.27023099	    -11.08817834	    107.68137594	     90.00000001	      0.00000000	      0.00000000	      0.95646420	     -8.65552655	    -17.18415332	     51.78985223	     90.00000001	      0.00000000	      0.00000000
